<svg aria-hidden="true" style="position:absolute;width:0;height:0;overflow:hidden" xmlns="http://www.w3.org/2000/svg">
  <defs>

    <!--HEADER-->
    <symbol id="inst" viewBox="0 0 30 32">
      <path
        d="M0 6.274c0-3.465 2.729-6.274 6.095-6.274h18.286c3.366 0 6.095 2.809 6.095 6.274v18.824c0 3.465-2.729 6.274-6.095 6.274h-18.286c-3.366 0-6.095-2.809-6.095-6.274v-18.824zM6.095 3.137c-1.683 0-3.048 1.405-3.048 3.137v18.824c0 1.733 1.364 3.137 3.048 3.137h18.286c1.683 0 3.048-1.404 3.048-3.137v-18.824c0-1.733-1.364-3.137-3.048-3.137h-18.286zM15.238 10.98c-2.525 0-4.571 2.107-4.571 4.706s2.047 4.706 4.571 4.706 4.571-2.107 4.571-4.706c0-2.599-2.047-4.706-4.571-4.706zM7.619 15.686c0-4.332 3.411-7.843 7.619-7.843s7.619 3.511 7.619 7.843c0 4.332-3.411 7.843-7.619 7.843s-7.619-3.512-7.619-7.843zM23.619 9.412c1.262 0 2.286-1.053 2.286-2.353s-1.023-2.353-2.286-2.353c-1.262 0-2.286 1.053-2.286 2.353s1.023 2.353 2.286 2.353z">
      </path>
    </symbol>

    <symbol id="twitter" viewBox="0 0 38 32">
      <path
        d="M33.793 7.935c0.015 0.332 0.023 0.665 0.023 0.999 0 10.207-7.77 21.976-21.975 21.976-4.362 0-8.422-1.279-11.841-3.47 0.605 0.072 1.219 0.108 1.843 0.108 3.619 0 6.949-1.235 9.593-3.307-3.381-0.062-6.232-2.295-7.215-5.364 0.472 0.090 0.955 0.139 1.454 0.139 0.704 0 1.386-0.095 2.035-0.271-3.533-0.71-6.196-3.831-6.196-7.573 0-0.033 0-0.065 0.001-0.097 1.041 0.578 2.232 0.925 3.499 0.966-2.073-1.385-3.436-3.749-3.436-6.429 0-1.415 0.38-2.742 1.046-3.883 3.809 4.673 9.5 7.747 15.919 8.070-0.131-0.565-0.2-1.155-0.2-1.761 0-4.265 3.458-7.723 7.723-7.723 2.223 0 4.229 0.938 5.638 2.439 1.76-0.346 3.412-0.989 4.904-1.874-0.577 1.804-1.8 3.317-3.395 4.273 1.563-0.187 3.052-0.602 4.437-1.216-1.035 1.548-2.345 2.909-3.854 3.998z">
      </path>
    </symbol>

    <symbol id="facebook" viewBox="0 0 30 32">
      <path
        d="M30.476 15.592c-0.036-2.922-0.9-5.773-2.492-8.216s-3.845-4.379-6.493-5.578c-2.649-1.199-5.582-1.611-8.456-1.188s-5.567 1.663-7.764 3.574-3.805 4.415-4.635 7.215c-0.83 2.8-0.848 5.781-0.050 8.591s2.376 5.332 4.55 7.269c2.174 1.938 4.853 3.209 7.721 3.666v-10.867h-3.81v-4.466h3.81v-3.392c-0.088-0.789-0.003-1.587 0.249-2.34s0.665-1.439 1.21-2.013c0.545-0.574 1.208-1.021 1.944-1.308s1.524-0.41 2.311-0.357c1.143 0.016 2.282 0.118 3.41 0.307v3.833h-1.905c-0.328-0.042-0.662-0.009-0.976 0.097s-0.601 0.281-0.838 0.512-0.421 0.514-0.535 0.827c-0.115 0.313-0.158 0.647-0.127 0.979v2.894h4.229l-0.686 4.466h-3.524v10.733c3.6-0.573 6.877-2.425 9.236-5.22s3.644-6.349 3.622-10.016z">
      </path>
    </symbol>
    <symbol id="look" viewBox="0 0 32 32">
      <path stroke-linejoin="round" stroke-linecap="round" stroke-miterlimit="4" stroke-width="3.2"
        d="M30.4 30.4l-9.6-9.6M24 12.8c0 6.186-5.014 11.2-11.2 11.2s-11.2-5.014-11.2-11.2c0-6.186 5.014-11.2 11.2-11.2s11.2 5.014 11.2 11.2z">
      </path>
    </symbol>



  </defs>
</svg>